<svg xmlns="http://www.w3.org/2000/svg" xmlns:xlink="http://www.w3.org/1999/xlink" width="128" height="128" version="1.0"><defs><linearGradient id="b"><stop offset="0" stop-color="#deddda"/><stop offset="1" stop-color="#77767b"/></linearGradient><linearGradient id="c"><stop offset="0" stop-color="#deddda"/><stop offset="1" stop-color="#77767b"/></linearGradient><linearGradient id="d"><stop offset="0" stop-color="#9a9996"/><stop offset="1" stop-color="#77767b"/></linearGradient><linearGradient id="e"><stop offset="0" stop-color="#3d3846"/><stop offset=".045" stop-color="#5e5c64"/><stop offset=".091" stop-color="#3d3846"/><stop offset=".909" stop-color="#3d3846"/><stop offset=".955" stop-color="#5e5c64"/><stop offset="1" stop-color="#3d3846"/></linearGradient><linearGradient id="f"><stop offset="0" stop-color="#deddda"/><stop offset="1" stop-color="#c0bfbc"/></linearGradient><linearGradient id="a"><stop offset="0" stop-color="#c0bfbc"/><stop offset=".351" stop-color="#fff"/><stop offset=".602" stop-color="#9a9996"/><stop offset="1" stop-color="#77767b"/></linearGradient><linearGradient xlink:href="#a" id="l" x1="60" x2="68" y1="199.856" y2="199.856" gradientTransform="matrix(.75 0 0 .7 -29 80)" gradientUnits="userSpaceOnUse"/><linearGradient xlink:href="#a" id="k" x1="60" x2="68" y1="199.856" y2="199.856" gradientTransform="matrix(.75 0 0 .7 -29 113)" gradientUnits="userSpaceOnUse"/><linearGradient xlink:href="#d" id="h" x1="83.111" x2="102.222" y1="199.512" y2="289.047" gradientTransform="matrix(.8372 0 0 1.22857 -117.581 -49.114)" gradientUnits="userSpaceOnUse"/><linearGradient xlink:href="#e" id="g" x1="48" x2="464" y1="204" y2="204" gradientTransform="matrix(.21154 0 0 .25 9.846 229)" gradientUnits="userSpaceOnUse"/><linearGradient xlink:href="#a" id="o" x1="50.981" x2="50.981" y1="248.218" y2="252.218" gradientTransform="scale(-1 1) rotate(30 -5.577 44.98)" gradientUnits="userSpaceOnUse"/><linearGradient xlink:href="#a" id="n" x1="50.981" x2="50.981" y1="248.218" y2="252.218" gradientTransform="rotate(30 58.423 283.831)" gradientUnits="userSpaceOnUse"/><linearGradient xlink:href="#a" id="p" x1="50.981" x2="50.981" y1="248.218" y2="252.218" gradientTransform="matrix(0 1 1 0 -186.218 202.02)" gradientUnits="userSpaceOnUse"/><radialGradient xlink:href="#b" id="j" cx="-223" cy="64" r="24" fx="-223" fy="64" gradientTransform="matrix(.75 0 0 .75 -42.25 16)" gradientUnits="userSpaceOnUse"/><radialGradient xlink:href="#c" id="i" cx="-223" cy="64" r="24" fx="-223" fy="64" gradientTransform="translate(-35.306 14.222) scale(.77778)" gradientUnits="userSpaceOnUse"/><radialGradient xlink:href="#f" id="m" cx="-236" cy="-64" r="12" fx="-236" fy="-64" gradientTransform="translate(-104.556 -33.778) scale(.47222)" gradientUnits="userSpaceOnUse"/></defs><g transform="translate(0 -172)"><rect width="88" height="84" x="20" y="208" fill="url(#g)" rx="8" ry="8" style="marker:none"/><rect width="88" height="104" x="20" y="180" fill="#5e5c64" rx="8" ry="8" style="marker:none"/><g transform="translate(0 4)"><rect width="72" height="80" x="28" y="194" fill="#3d3846" rx="3" ry="3" style="marker:none"/><path fill="#5e5c64" d="M24 244h6v14h-6z"/></g><rect width="72" height="88" x="-100" y="188" fill="url(#h)" rx="3" ry="3" style="marker:none" transform="scale(-1 1)"/><path fill="none" stroke="#000" stroke-linecap="round" stroke-width="4" d="M63.588 250 48 241m16.412 9L80 241m-16 25v-17" opacity=".2"/><circle cx="-248" cy="-64" r="6" fill="#3d3846" transform="matrix(0 -1 -1 0 0 0)"/><circle cx="-216" cy="64" r="14" fill="#5e5c64" transform="rotate(-90)"/><circle cx="-214" cy="64" r="14" fill="url(#i)" transform="rotate(-90)"/><path fill="none" stroke="#000" stroke-width="2" d="M64 223.333V228m0-28v28m-7-26.124 14 24.248M51.876 207l24.248 14M50 214h28m-26.124 7 24.248-14M57 226.124l14-24.248" opacity=".222"/><circle cx="-214" cy="64" r="9" fill="url(#j)" transform="rotate(-90)"/><circle cx="-214" cy="-64" r="6" fill="#3d3846" transform="matrix(0 -1 -1 0 0 0)"/><path fill="url(#k)" d="M19 245a3 1 0 0 0-3 1v14h6v-14a3 1 0 0 0-3-1z" transform="translate(8)"/><path fill="#3d3846" d="M27 259a3 1 0 0 0-3 1 3 1 0 0 0 3 1 3 1 0 0 0 1-.059V260h2a3 1 0 0 0-3-1zm0-8c-1.657 0-3 .448-3 1v2c0-.552 1.343-1 3-1s3 .448 3 1v-2c0-.552-1.343-1-3-1zm1.197 2.916-.056.008.056-.008z" style="marker:none"/><path fill="url(#l)" d="M19 212a3 1 0 0 0-3 1v14h6v-14a3 1 0 0 0-3-1z" transform="translate(8 -9)"/><path fill="#3d3846" d="M27 217a3 1 0 0 0-3 1 3 1 0 0 0 3 1 3 1 0 0 0 1-.059V218h2a3 1 0 0 0-3-1zm0-8c-1.657 0-3 .448-3 1v2c0-.552 1.343-1 3-1s3 .448 3 1v-2c0-.552-1.343-1-3-1zm1.197 2.916-.056.008.056-.008z" style="marker:none"/><circle cx="-214" cy="-64" r="4" fill="url(#m)" transform="matrix(0 -1 -1 0 0 0)"/><g fill="none" stroke-linecap="round" stroke-width="4"><path stroke="url(#n)" d="M63.588 248 48 239"/><path stroke="url(#o)" d="M64.412 248 80 239"/><path stroke="url(#p)" d="M64 264v-17"/></g><circle cx="-248" cy="-64" r="4" fill="#f6f5f4" transform="matrix(0 -1 -1 0 0 0)"/></g></svg>